# xmcd CD database file
#
# Track frame offsets:
#	150
#	51672
#	104117
#	141750
#	191907
#	230825
#	266610
#	316122
#
# Disc length: 4552 seconds
#
# Revision: 0
# Processed by: cddbd v1.5.1PL0 Copyright (c) Steve Scherf et al.
# Submitted via: CDex 1.51
#
DISCID=7f11c608
DTITLE=Short Rogers And Bill Perkins - Live At The Royal Palms Inn
DYEAR=1900
DGENRE=Jazz
TTITLE0=Have You Hugged Your Martian Today
TTITLE1=Eight Brothers
TTITLE2=You've Changed
TTITLE3=Yesterday, Today And Forever
TTITLE4=Summertime
TTITLE5=One For All
TTITLE6=Aurex
TTITLE7=Traditional Blues
EXTD=
EXTT0=
EXTT1=
EXTT2=
EXTT3=
EXTT4=
EXTT5=
EXTT6=
EXTT7=
PLAYORDER=
